<svg width="120" height="32" viewBox="0 0 120 32" fill="none" xmlns="http://www.w3.org/2000/svg">
  <path d="M24.5 16C24.5 20.6944 20.6944 24.5 16 24.5C11.3056 24.5 7.5 20.6944 7.5 16C7.5 11.3056 11.3056 7.5 16 7.5C20.6944 7.5 24.5 11.3056 24.5 16Z" stroke="#F4511E"/>
  <path d="M16 0L19.0983 4.90983L24.8532 5.72949L20.4266 9.57017L21.4164 15.2705L16 12.6L10.5836 15.2705L11.5734 9.57017L7.14683 5.72949L12.9017 4.90983L16 0Z" fill="#F4511E"/>
  <path d="M38.144 23V9.2H45.136C46.72 9.2 48.032 9.544 49.072 10.232C50.112 10.904 50.888 11.816 51.4 12.968C51.928 14.12 52.192 15.416 52.192 16.856C52.192 18.296 51.928 19.592 51.4 20.744C50.888 21.896 50.112 22.816 49.072 23.504C48.032 24.176 46.72 24.512 45.136 24.512H36.632V23H38.144ZM45.136 23C46.496 23 47.632 22.712 48.544 22.136C49.456 21.544 50.136 20.744 50.584 19.736C51.048 18.728 51.28 17.608 51.28 16.376C51.28 15.144 51.048 14.024 50.584 13.016C50.136 12.008 49.456 11.216 48.544 10.64C47.632 10.048 46.496 9.752 45.136 9.752H39.056V23H45.136Z" fill="#2D3436"/>
  <path d="M59.27 23.288C58.166 23.288 57.182 23.048 56.318 22.568C55.47 22.072 54.806 21.392 54.326 20.528C53.846 19.648 53.606 18.624 53.606 17.456C53.606 16.288 53.846 15.272 54.326 14.408C54.806 13.528 55.47 12.848 56.318 12.368C57.182 11.872 58.166 11.624 59.27 11.624C60.374 11.624 61.35 11.872 62.198 12.368C63.062 12.848 63.734 13.528 64.214 14.408C64.694 15.272 64.934 16.288 64.934 17.456C64.934 18.624 64.694 19.648 64.214 20.528C63.734 21.392 63.062 22.072 62.198 22.568C61.35 23.048 60.374 23.288 59.27 23.288ZM59.27 22.472C60.166 22.472 60.958 22.272 61.646 21.872C62.35 21.456 62.91 20.872 63.326 20.12C63.742 19.368 63.95 18.48 63.95 17.456C63.95 16.432 63.742 15.544 63.326 14.792C62.91 14.04 62.35 13.464 61.646 13.064C60.958 12.648 60.166 12.44 59.27 12.44C58.374 12.44 57.574 12.648 56.87 13.064C56.182 13.464 55.63 14.04 55.214 14.792C54.798 15.544 54.59 16.432 54.59 17.456C54.59 18.48 54.798 19.368 55.214 20.12C55.63 20.872 56.182 21.456 56.87 21.872C57.574 22.272 58.374 22.472 59.27 22.472Z" fill="#2D3436"/>
  <path d="M71.636 23.288C70.532 23.288 69.548 23.048 68.684 22.568C67.836 22.072 67.172 21.392 66.692 20.528C66.212 19.648 65.972 18.624 65.972 17.456C65.972 16.288 66.212 15.272 66.692 14.408C67.172 13.528 67.836 12.848 68.684 12.368C69.548 11.872 70.532 11.624 71.636 11.624C72.74 11.624 73.716 11.872 74.564 12.368C75.428 12.848 76.1 13.528 76.58 14.408C77.06 15.272 77.3 16.288 77.3 17.456C77.3 18.624 77.06 19.648 76.58 20.528C76.1 21.392 75.428 22.072 74.564 22.568C73.716 23.048 72.74 23.288 71.636 23.288ZM71.636 22.472C72.532 22.472 73.324 22.272 74.012 21.872C74.716 21.456 75.276 20.872 75.692 20.12C76.108 19.368 76.316 18.48 76.316 17.456C76.316 16.432 76.108 15.544 75.692 14.792C75.276 14.04 74.716 13.464 74.012 13.064C73.324 12.648 72.532 12.44 71.636 12.44C70.74 12.44 69.94 12.648 69.236 13.064C68.548 13.464 67.996 14.04 67.58 14.792C67.164 15.544 66.956 16.432 66.956 17.456C66.956 18.48 67.164 19.368 67.58 20.12C67.996 20.872 68.548 21.456 69.236 21.872C69.94 22.272 70.74 22.472 71.636 22.472Z" fill="#2D3436"/>
  <path d="M84.002 23.288C82.898 23.288 81.914 23.048 81.05 22.568C80.202 22.072 79.538 21.392 79.058 20.528C78.578 19.648 78.338 18.624 78.338 17.456C78.338 16.288 78.578 15.272 79.058 14.408C79.538 13.528 80.202 12.848 81.05 12.368C81.914 11.872 82.898 11.624 84.002 11.624C85.106 11.624 86.082 11.872 86.93 12.368C87.794 12.848 88.466 13.528 88.946 14.408C89.426 15.272 89.666 16.288 89.666 17.456C89.666 18.624 89.426 19.648 88.946 20.528C88.466 21.392 87.794 22.072 86.93 22.568C86.082 23.048 85.106 23.288 84.002 23.288ZM84.002 22.472C84.898 22.472 85.69 22.272 86.378 21.872C87.082 21.456 87.642 20.872 88.058 20.12C88.474 19.368 88.682 18.48 88.682 17.456C88.682 16.432 88.474 15.544 88.058 14.792C87.642 14.04 87.082 13.464 86.378 13.064C85.69 12.648 84.898 12.44 84.002 12.44C83.106 12.44 82.306 12.648 81.602 13.064C80.914 13.464 80.362 14.04 79.946 14.792C79.53 15.544 79.322 16.432 79.322 17.456C79.322 18.48 79.53 19.368 79.946 20.12C80.362 20.872 80.914 21.456 81.602 21.872C82.306 22.272 83.106 22.472 84.002 22.472Z" fill="#2D3436"/>
  <path d="M92.0703 23V11.912H92.9823V14.36C93.3343 13.496 93.8783 12.824 94.6143 12.344C95.3503 11.864 96.2303 11.624 97.2543 11.624C98.7063 11.624 99.8263 12.04 100.614 12.872C101.402 13.688 101.802 14.888 101.802 16.472V23H100.89V16.592C100.89 15.216 100.562 14.168 99.9063 13.448C99.2663 12.728 98.3223 12.368 97.0743 12.368C96.3703 12.368 95.7303 12.52 95.1543 12.824C94.5943 13.112 94.1463 13.528 93.8103 14.072C93.4743 14.6 93.3023 15.224 93.2943 15.944V23H92.0703Z" fill="#2D3436"/>
  <path d="M110.524 23.288C109.42 23.288 108.428 23.048 107.548 22.568C106.684 22.088 106.004 21.416 105.508 20.552C105.012 19.688 104.764 18.664 104.764 17.48C104.764 16.296 105.004 15.272 105.484 14.408C105.964 13.528 106.62 12.848 107.452 12.368C108.3 11.872 109.252 11.624 110.308 11.624C111.38 11.624 112.324 11.872 113.14 12.368C113.956 12.848 114.588 13.528 115.036 14.408C115.484 15.272 115.708 16.28 115.708 17.432C115.708 17.528 115.7 17.632 115.684 17.744C115.684 17.856 115.684 17.952 115.684 18.032H105.7C105.748 18.912 105.98 19.672 106.396 20.312C106.812 20.952 107.356 21.448 108.028 21.8C108.716 22.136 109.476 22.304 110.308 22.304C111.3 22.304 112.14 22.088 112.828 21.656C113.532 21.208 114.044 20.584 114.364 19.784L115.3 20.12C114.94 21.08 114.324 21.856 113.452 22.448C112.596 23.008 111.612 23.288 110.524 23.288ZM110.308 12.44C109.54 12.44 108.836 12.608 108.196 12.944C107.556 13.28 107.036 13.76 106.636 14.384C106.236 15.008 105.996 15.736 105.916 16.568H114.652C114.588 15.736 114.364 15.008 113.98 14.384C113.596 13.76 113.084 13.28 112.444 12.944C111.82 12.608 111.108 12.44 110.308 12.44Z" fill="#2D3436"/>
</svg> 